<svg width="24" height="24" viewBox="0 0 24 24" fill="none" xmlns="http://www.w3.org/2000/svg">
<rect width="24" height="24" fill="#F5F5F5"/>
<g clip-path="url(#clip0_0_1)" filter="url(#filter0_ddddd_0_1)">
<rect width="1440" height="1021" transform="translate(-1174 -33)" fill="#EDF0F2"/>
<rect width="1440" height="90" transform="translate(-1174 -33)" fill="white"/>
<rect x="-5" y="-5" width="34" height="34" rx="5" fill="#EAEAEA"/>
<path d="M21 21L16.514 16.506M19 10.5C19 12.7543 18.1045 14.9163 16.5104 16.5104C14.9163 18.1045 12.7543 19 10.5 19C8.24566 19 6.08365 18.1045 4.48959 16.5104C2.89553 14.9163 2 12.7543 2 10.5C2 8.24566 2.89553 6.08365 4.48959 4.48959C6.08365 2.89553 8.24566 2 10.5 2C12.7543 2 14.9163 2.89553 16.5104 4.48959C18.1045 6.08365 19 8.24566 19 10.5V10.5Z" stroke="#101540" stroke-width="2" stroke-linecap="round"/>
</g>
<defs>
<filter id="filter0_ddddd_0_1" x="-1427" y="-80" width="1948" height="1957" filterUnits="userSpaceOnUse" color-interpolation-filters="sRGB">
<feFlood flood-opacity="0" result="BackgroundImageFix"/>
<feColorMatrix in="SourceAlpha" type="matrix" values="0 0 0 0 0 0 0 0 0 0 0 0 0 0 0 0 0 0 127 0" result="hardAlpha"/>
<feOffset/>
<feColorMatrix type="matrix" values="0 0 0 0 0 0 0 0 0 0 0 0 0 0 0 0 0 0 0.1 0"/>
<feBlend mode="normal" in2="BackgroundImageFix" result="effect1_dropShadow_0_1"/>
<feColorMatrix in="SourceAlpha" type="matrix" values="0 0 0 0 0 0 0 0 0 0 0 0 0 0 0 0 0 0 127 0" result="hardAlpha"/>
<feOffset dy="40"/>
<feGaussianBlur stdDeviation="43.5"/>
<feColorMatrix type="matrix" values="0 0 0 0 0 0 0 0 0 0 0 0 0 0 0 0 0 0 0.1 0"/>
<feBlend mode="normal" in2="effect1_dropShadow_0_1" result="effect2_dropShadow_0_1"/>
<feColorMatrix in="SourceAlpha" type="matrix" values="0 0 0 0 0 0 0 0 0 0 0 0 0 0 0 0 0 0 127 0" result="hardAlpha"/>
<feOffset dy="159"/>
<feGaussianBlur stdDeviation="79.5"/>
<feColorMatrix type="matrix" values="0 0 0 0 0 0 0 0 0 0 0 0 0 0 0 0 0 0 0.09 0"/>
<feBlend mode="normal" in2="effect2_dropShadow_0_1" result="effect3_dropShadow_0_1"/>
<feColorMatrix in="SourceAlpha" type="matrix" values="0 0 0 0 0 0 0 0 0 0 0 0 0 0 0 0 0 0 127 0" result="hardAlpha"/>
<feOffset dx="1" dy="357"/>
<feGaussianBlur stdDeviation="107"/>
<feColorMatrix type="matrix" values="0 0 0 0 0 0 0 0 0 0 0 0 0 0 0 0 0 0 0.05 0"/>
<feBlend mode="normal" in2="effect3_dropShadow_0_1" result="effect4_dropShadow_0_1"/>
<feColorMatrix in="SourceAlpha" type="matrix" values="0 0 0 0 0 0 0 0 0 0 0 0 0 0 0 0 0 0 127 0" result="hardAlpha"/>
<feOffset dx="1" dy="635"/>
<feGaussianBlur stdDeviation="127"/>
<feColorMatrix type="matrix" values="0 0 0 0 0 0 0 0 0 0 0 0 0 0 0 0 0 0 0.01 0"/>
<feBlend mode="normal" in2="effect4_dropShadow_0_1" result="effect5_dropShadow_0_1"/>
<feBlend mode="normal" in="SourceGraphic" in2="effect5_dropShadow_0_1" result="shape"/>
</filter>
<clipPath id="clip0_0_1">
<rect width="1440" height="1021" fill="white" transform="translate(-1174 -33)"/>
</clipPath>
</defs>
</svg>
